<?xml version="1.0" encoding="utf-8"?>
<!-- Generator: Adobe Illustrator 22.1.0, SVG Export Plug-In . SVG Version: 6.00 Build 0)  -->
<svg version="1.1" id="Layer_1" xmlns="http://www.w3.org/2000/svg" xmlns:xlink="http://www.w3.org/1999/xlink" x="0px" y="0px"
	 viewBox="0 0 22 22" style="enable-background:new 0 0 22 22;" xml:space="preserve">
<style type="text/css">
	.st0{opacity:0.4;fill:#FF6A98;enable-background:new    ;}
	.st1{fill:none;stroke:#AA2F00;stroke-miterlimit:10;}
	.st2{fill:#4C0000;}
	.st3{fill:#FFAAAA;stroke:#6A0017;stroke-miterlimit:10;}
</style>
<g id="Layer_12_copy">
	<path class="st0" d="M15.8,14.3l-1.3-0.7c-0.5-0.3-1.2-0.3-1.7,0l-1.3,0.7c-1.3,0.7-2.9-0.4-2.7-1.9l0.3-1.4
		c0.1-0.6-0.1-1.2-0.5-1.7l-1-1c-1.1-1-0.5-2.9,1-3.1L10,4.9c0.6-0.1,1.1-0.5,1.4-1L12,2.6c0.7-1.4,2.6-1.4,3.3,0L16,3.9
		c0.3,0.5,0.8,0.9,1.4,1l1.4,0.2c1.5,0.2,2.1,2.1,1,3.1l-1.1,1.1c-0.4,0.4-0.6,1-0.5,1.6l0.2,1.4C18.8,13.8,17.2,15,15.8,14.3z"/>
</g>
<g id="Layer_12">
	<path class="st1" d="M15.4,14.2l-1.1-0.6c-0.5-0.3-1.2-0.4-1.8-0.1L11.4,14c-1.4,0.7-3-0.6-2.7-2.1L9,10.7c0.1-0.6,0-1.3-0.5-1.7
		L7.6,8C6.5,6.9,7.2,5,8.8,4.8l1.3-0.1c0.6-0.1,1.2-0.4,1.5-1l0.6-1.1c0.8-1.4,2.8-1.3,3.4,0.1l0.6,1.2c0.3,0.6,0.8,1,1.4,1.1
		l1.2,0.2c1.6,0.3,2.1,2.2,0.9,3.3l-1,0.9c-0.5,0.4-0.7,1-0.6,1.7l0.2,1.2C18.4,13.9,16.7,15,15.4,14.2z"/>
</g>
<g>
	<path class="st2" d="M14.2,10.2c0.2,0.2,0.3,0.4,0.2,0.7c0,0.3-0.1,0.5-0.3,0.7c-0.2,0.2-0.4,0.3-0.7,0.2c-0.3,0-0.5-0.1-0.7-0.3
		c-0.2-0.2-0.3-0.4-0.2-0.7c0-0.3,0.1-0.5,0.3-0.7c0.2-0.2,0.4-0.3,0.7-0.2C13.8,9.9,14,10,14.2,10.2z M14.3,9l-1.4-0.1L13,4.2
		l1.8,0.1L14.3,9z"/>
</g>
<path class="st3" d="M13.1,18.5c0,3.2-2.6,1.5-5.8,1.5s-5.8,1.7-5.8-1.5s2.6-5.7,5.8-5.7S13.1,15.3,13.1,18.5z"/>
<path class="st3" d="M10.3,10.6c0,1.6-1.3,2.9-2.9,2.9s-2.9-1.3-2.9-2.9c0-0.3-0.1-2,0-2.3c0.5-1.2,1-0.4,2.9-0.5
	c1.7,0,2.5-0.6,2.9,0.5C10.4,8.7,10.3,10.3,10.3,10.6z"/>
</svg>
